<svg width="21" height="21" viewBox="0 0 21 21" fill="none" xmlns="http://www.w3.org/2000/svg">
<path fill-rule="evenodd" clip-rule="evenodd" d="M4.04297 6.06667C4.04297 2.71614 6.75911 0 10.1096 0C13.4602 0 16.1763 2.71614 16.1763 6.06667C16.1763 9.41719 13.4602 12.1333 10.1096 12.1333C6.75911 12.1333 4.04297 9.41719 4.04297 6.06667Z" fill="#655BD5"/>
<path fill-rule="evenodd" clip-rule="evenodd" d="M3.40927 14.776C5.05989 13.9882 7.27094 13.7339 10.1111 13.7339C12.9513 13.7339 15.1623 13.9882 16.813 14.776C18.5552 15.6075 19.6121 17.0019 20.1765 19.0174C20.2721 19.3584 20.2159 19.7295 20.0254 20.0172C19.8348 20.3048 19.5325 20.4746 19.2111 20.4746H1.01112C0.689679 20.4746 0.387391 20.3048 0.196836 20.0172C0.00628032 19.7295 -0.0498363 19.3584 0.0456727 19.0174C0.61014 17.0019 1.66704 15.6075 3.40927 14.776Z" fill="#655BD5"/>
</svg>
