<svg width="14" height="21" viewBox="0 0 14 21" fill="none" xmlns="http://www.w3.org/2000/svg">
<path fill-rule="evenodd" clip-rule="evenodd" d="M0 6.74511C0 3.01989 3.01989 0 6.74511 0C10.4703 0 13.4902 3.01989 13.4902 6.74511C13.4902 10.4703 10.4703 13.4902 6.74511 13.4902C3.01989 13.4902 0 10.4703 0 6.74511Z" fill="currentColor"/>
<path d="M1.87115 12.9188C1.52634 12.646 0.986938 12.7955 0.880299 13.222L0.18036 16.0218C-0.537365 18.8927 2.52644 21.23 5.10565 19.7792L6.19893 19.1642C6.54115 18.9717 6.95901 18.9717 7.30122 19.1642L8.3945 19.7792C10.9737 21.23 14.0375 18.8927 13.3198 16.0218L12.6199 13.222C12.5132 12.7955 11.9738 12.646 11.629 12.9188C10.2879 13.9799 8.59298 14.6134 6.75008 14.6134C4.90718 14.6134 3.21224 13.9799 1.87115 12.9188Z" fill="currentColor"/>
</svg>
