<svg width="21" height="21" viewBox="0 0 21 21" fill="none" xmlns="http://www.w3.org/2000/svg">
<path fill-rule="evenodd" clip-rule="evenodd" d="M3.12435 0.21416C3.85509 0.0517599 4.72014 0 5.71075 0H14.5115C15.5021 0 16.3671 0.0517599 17.0979 0.21416C17.8401 0.379112 18.5042 0.67134 19.0276 1.19466C19.5509 1.71798 19.8431 2.38214 20.0081 3.12435C20.1705 3.85509 20.2222 4.72014 20.2222 5.71076V10.467C20.2222 11.4576 20.1705 12.3227 20.0081 13.0534C19.8431 13.7956 19.5509 14.4598 19.0276 14.9831C18.5042 15.5064 17.8401 15.7987 17.0979 15.9636C16.3671 16.126 15.5021 16.1778 14.5115 16.1778H12.1333L13.9533 18.6044C14.2884 19.0512 14.1978 19.6849 13.7511 20.02C13.3044 20.3551 12.6706 20.2645 12.3356 19.8178L10.1111 16.8519L7.88667 19.8178C7.55161 20.2645 6.91785 20.3551 6.47111 20.02C6.02437 19.6849 5.93384 19.0512 6.26889 18.6044L8.08889 16.1778H5.71075C4.72014 16.1778 3.85509 16.126 3.12435 15.9636C2.38214 15.7987 1.71798 15.5064 1.19466 14.9831C0.67134 14.4598 0.379112 13.7956 0.21416 13.0534C0.0517599 12.3227 0 11.4576 0 10.467V5.71076C0 4.72014 0.0517599 3.85509 0.21416 3.12435C0.379112 2.38214 0.67134 1.71798 1.19466 1.19466C1.71798 0.67134 2.38214 0.379112 3.12435 0.21416ZM11.1222 5.05556C11.1222 4.49713 10.6695 4.04444 10.1111 4.04444C9.55269 4.04444 9.1 4.49713 9.1 5.05556L9.1 11.1222C9.1 11.6806 9.55269 12.1333 10.1111 12.1333C10.6695 12.1333 11.1222 11.6806 11.1222 11.1222L11.1222 5.05556ZM14.1556 5.05556C14.714 5.05556 15.1667 5.50825 15.1667 6.06667L15.1667 11.1222C15.1667 11.6806 14.714 12.1333 14.1556 12.1333C13.5971 12.1333 13.1444 11.6806 13.1444 11.1222L13.1444 6.06667C13.1444 5.50825 13.5971 5.05556 14.1556 5.05556ZM7.07778 7.07778C7.07778 6.51936 6.62509 6.06667 6.06667 6.06667C5.50824 6.06667 5.05556 6.51936 5.05556 7.07778L5.05555 11.1222C5.05555 11.6806 5.50824 12.1333 6.06667 12.1333C6.62509 12.1333 7.07778 11.6806 7.07778 11.1222L7.07778 7.07778Z" fill="currentColor"/>
</svg>
