<svg width="67" height="64" viewBox="0 0 67 64" fill="none" xmlns="http://www.w3.org/2000/svg">
<path d="M36.4348 8.97162L17.4335 14.063C10.5091 15.9184 7.63706 20.8924 9.49226 27.8162L14.5783 46.7976C16.4335 53.7213 21.4079 56.5929 28.3322 54.7376L47.3335 49.6462C54.2579 47.7908 57.1119 42.8216 55.2567 35.8979L50.1706 16.9164C48.3154 9.9927 43.3592 7.11624 36.4348 8.97162Z" fill="url(#paint0_linear_28855_56)"/>
<g opacity="0.5" filter="url(#filter0_f_28855_56)">
<path d="M35.233 17.3794L22.6738 20.7446C18.097 21.971 16.1651 25.1335 17.3322 29.489L20.5317 41.4297C21.6988 45.7853 24.9531 47.5582 29.5299 46.3318L42.0891 42.9666C46.6659 41.7403 48.5858 38.5809 47.4187 34.2254L44.2192 22.2847C43.0522 17.9292 39.8098 16.153 35.233 17.3794Z" fill="#E31352"/>
</g>
<foreignObject x="-5.52344" y="-6.03949" width="92.1094" height="92.1094"><div xmlns="http://www.w3.org/1999/xhtml" style="backdrop-filter:blur(12px);clip-path:url(#bgblur_0_28855_56_clip_path);height:100%;width:100%"></div></foreignObject><path data-figma-bg-blur-radius="24" d="M49.6689 18.4605C53.3592 18.4605 56.4747 19.7587 58.666 22.0523C60.8553 24.3438 62.0859 27.591 62.0859 31.4254V48.6265C62.0859 52.4508 60.8544 55.6923 58.665 57.981C56.4738 60.2716 53.3591 61.5699 49.6689 61.5699H31.415C27.7249 61.5699 24.6046 60.2714 22.4082 57.981C20.2136 55.6925 18.9766 52.4513 18.9766 48.6265V31.4254L18.9912 30.7125C19.1352 27.1876 20.3508 24.2003 22.4082 22.0523C24.6047 19.7591 27.7249 18.4605 31.415 18.4605H49.6689Z" fill="#FF749F" fill-opacity="0.35" stroke="url(#paint1_linear_28855_56)" stroke-linecap="round" stroke-linejoin="round"/>
<foreignObject x="45.7266" y="0.866943" width="36.1875" height="36.1875"><div xmlns="http://www.w3.org/1999/xhtml" style="backdrop-filter:blur(7.5px);clip-path:url(#bgblur_1_28855_56_clip_path);height:100%;width:100%"></div></foreignObject><path data-figma-bg-blur-radius="15" d="M63.8203 15.8669C62.1117 15.8669 60.7266 17.2521 60.7266 18.9607C60.7266 20.6693 62.1117 22.0544 63.8203 22.0544C65.5289 22.0544 66.9141 20.6693 66.9141 18.9607C66.9141 18.1402 66.5881 17.3533 66.0079 16.7731C65.4277 16.1929 64.6408 15.8669 63.8203 15.8669Z" fill="url(#paint2_linear_28855_56)"/>
<foreignObject x="14.457" y="18.7291" width="52.4043" height="43.5256"><div xmlns="http://www.w3.org/1999/xhtml" style="backdrop-filter:blur(7.5px);clip-path:url(#bgblur_2_28855_56_clip_path);height:100%;width:100%"></div></foreignObject><g filter="url(#filter3_d_28855_56)" data-figma-bg-blur-radius="15">
<path d="M51.5465 36.2865L45.5294 44.051C45.2762 44.3885 44.8965 44.6087 44.4775 44.661C44.0585 44.7133 43.6362 44.5932 43.3077 44.3283L37.5312 39.799L32.3288 46.5283C31.952 47.1265 31.2183 47.3953 30.5435 47.1823C29.8687 46.9693 29.423 46.3282 29.4591 45.6224C29.456 45.2732 29.5737 44.9337 29.7923 44.6611L36.0131 36.6377C36.2632 36.3029 36.6378 36.0829 37.0524 36.0272C37.4669 35.9716 37.8865 36.085 38.2163 36.3419L43.9927 40.8897L49.0656 34.3638C49.3095 34.0273 49.6795 33.804 50.0912 33.7448C50.503 33.6855 50.9211 33.7955 51.2502 34.0495C51.9301 34.5813 52.0616 35.5573 51.5465 36.2495V36.2865Z" fill="url(#paint3_linear_28855_56)"/>
<path d="M50.1201 33.9429C50.4781 33.8915 50.8418 33.9868 51.1279 34.2076C51.7217 34.6726 51.8358 35.5257 51.3857 36.1304L51.3467 36.1832V36.2173L45.3711 43.9283L45.3691 43.9312C45.1487 44.225 44.8181 44.4168 44.4531 44.4625C44.088 44.508 43.7199 44.4032 43.4336 44.1724L43.4307 44.1705L37.6543 39.6412L37.4961 39.5172L37.373 39.6763L32.1709 46.4058L32.1592 46.4214C31.831 46.9426 31.1917 47.1774 30.6035 46.9918C30.0154 46.8061 29.6277 46.247 29.6592 45.6324V45.6207C29.6565 45.3177 29.7586 45.0232 29.9482 44.7867L29.9502 44.7838L36.1709 36.7603L36.1729 36.7574C36.3908 36.4657 36.7178 36.2737 37.0791 36.2252C37.3953 36.1827 37.715 36.2532 37.9824 36.4214L38.0938 36.4996L43.8691 41.0464L44.0273 41.1714L44.1504 41.0123L49.2236 34.4869L49.2275 34.481C49.4396 34.1885 49.762 33.9945 50.1201 33.9429Z" stroke="url(#paint4_linear_28855_56)" stroke-width="0.4"/>
</g>
<defs>
<filter id="filter0_f_28855_56" x="0" y="0" width="64.752" height="63.7115" filterUnits="userSpaceOnUse" color-interpolation-filters="sRGB">
<feFlood flood-opacity="0" result="BackgroundImageFix"/>
<feBlend mode="normal" in="SourceGraphic" in2="BackgroundImageFix" result="shape"/>
<feGaussianBlur stdDeviation="8.5" result="effect1_foregroundBlur_28855_56"/>
</filter>
<clipPath id="bgblur_0_28855_56_clip_path" transform="translate(5.52344 6.03949)"><path d="M49.6689 18.4605C53.3592 18.4605 56.4747 19.7587 58.666 22.0523C60.8553 24.3438 62.0859 27.591 62.0859 31.4254V48.6265C62.0859 52.4508 60.8544 55.6923 58.665 57.981C56.4738 60.2716 53.3591 61.5699 49.6689 61.5699H31.415C27.7249 61.5699 24.6046 60.2714 22.4082 57.981C20.2136 55.6925 18.9766 52.4513 18.9766 48.6265V31.4254L18.9912 30.7125C19.1352 27.1876 20.3508 24.2003 22.4082 22.0523C24.6047 19.7591 27.7249 18.4605 31.415 18.4605H49.6689Z"/>
</clipPath><clipPath id="bgblur_1_28855_56_clip_path" transform="translate(-45.7266 -0.866943)"><path d="M63.8203 15.8669C62.1117 15.8669 60.7266 17.2521 60.7266 18.9607C60.7266 20.6693 62.1117 22.0544 63.8203 22.0544C65.5289 22.0544 66.9141 20.6693 66.9141 18.9607C66.9141 18.1402 66.5881 17.3533 66.0079 16.7731C65.4277 16.1929 64.6408 15.8669 63.8203 15.8669Z"/>
</clipPath><filter id="filter3_d_28855_56" x="14.457" y="18.7291" width="52.4043" height="43.5256" filterUnits="userSpaceOnUse" color-interpolation-filters="sRGB">
<feFlood flood-opacity="0" result="BackgroundImageFix"/>
<feColorMatrix in="SourceAlpha" type="matrix" values="0 0 0 0 0 0 0 0 0 0 0 0 0 0 0 0 0 0 127 0" result="hardAlpha"/>
<feOffset dx="5" dy="5"/>
<feGaussianBlur stdDeviation="5"/>
<feColorMatrix type="matrix" values="0 0 0 0 1 0 0 0 0 0.321569 0 0 0 0 0.54902 0 0 0 0.5 0"/>
<feBlend mode="normal" in2="BackgroundImageFix" result="effect1_dropShadow_28855_56"/>
<feBlend mode="normal" in="SourceGraphic" in2="effect1_dropShadow_28855_56" result="shape"/>
</filter>
<clipPath id="bgblur_2_28855_56_clip_path" transform="translate(-14.457 -18.7291)"><path d="M51.5465 36.2865L45.5294 44.051C45.2762 44.3885 44.8965 44.6087 44.4775 44.661C44.0585 44.7133 43.6362 44.5932 43.3077 44.3283L37.5312 39.799L32.3288 46.5283C31.952 47.1265 31.2183 47.3953 30.5435 47.1823C29.8687 46.9693 29.423 46.3282 29.4591 45.6224C29.456 45.2732 29.5737 44.9337 29.7923 44.6611L36.0131 36.6377C36.2632 36.3029 36.6378 36.0829 37.0524 36.0272C37.4669 35.9716 37.8865 36.085 38.2163 36.3419L43.9927 40.8897L49.0656 34.3638C49.3095 34.0273 49.6795 33.804 50.0912 33.7448C50.503 33.6855 50.9211 33.7955 51.2502 34.0495C51.9301 34.5813 52.0616 35.5573 51.5465 36.2495V36.2865Z"/>
</clipPath><linearGradient id="paint0_linear_28855_56" x1="36.099" y1="33.7783" x2="5.01371" y2="60.7358" gradientUnits="userSpaceOnUse">
<stop stop-color="#FF759F"/>
<stop offset="1" stop-color="#FF196E"/>
</linearGradient>
<linearGradient id="paint1_linear_28855_56" x1="26.1797" y1="23.8663" x2="53.041" y2="57.1347" gradientUnits="userSpaceOnUse">
<stop stop-color="white" stop-opacity="0.25"/>
<stop offset="1" stop-color="white" stop-opacity="0"/>
</linearGradient>
<linearGradient id="paint2_linear_28855_56" x1="64.2758" y1="19.375" x2="58.8389" y2="22.0186" gradientUnits="userSpaceOnUse">
<stop stop-color="#FF759F"/>
<stop offset="1" stop-color="#FF196E"/>
</linearGradient>
<linearGradient id="paint3_linear_28855_56" x1="50.2723" y1="36.1715" x2="25.3628" y2="37.5168" gradientUnits="userSpaceOnUse">
<stop stop-color="white"/>
<stop offset="1" stop-color="white" stop-opacity="0.2"/>
</linearGradient>
<linearGradient id="paint4_linear_28855_56" x1="33.0233" y1="35.3048" x2="39.9759" y2="49.5679" gradientUnits="userSpaceOnUse">
<stop stop-color="white" stop-opacity="0.25"/>
<stop offset="1" stop-color="white" stop-opacity="0"/>
</linearGradient>
</defs>
</svg>
