<svg width="79" height="68" viewBox="0 0 79 68" fill="none" xmlns="http://www.w3.org/2000/svg">
<path d="M57.8469 35.3498C57.8469 48.4522 47.226 59.0731 34.1237 59.0731C21.0213 59.0731 10.4004 48.4522 10.4004 35.3498C10.4004 22.2499 21.0213 11.6266 34.1237 11.6266C47.226 11.6266 57.8469 22.2499 57.8469 35.3498Z" fill="url(#paint0_linear_552_2391)"/>
<g opacity="0.5" filter="url(#filter0_f_552_2391)">
<path d="M44.563 31.7815C44.563 38.8407 38.8407 44.563 31.7815 44.563C24.7223 44.563 19 38.8407 19 31.7815C19 24.7236 24.7223 19 31.7815 19C38.8407 19 44.563 24.7236 44.563 31.7815Z" fill="#E46800"/>
</g>
<foreignObject x="-5.88477" y="-5.81995" width="97.4473" height="97.4465"><div xmlns="http://www.w3.org/1999/xhtml" style="backdrop-filter:blur(12px);clip-path:url(#bgblur_0_552_2391_clip_path);height:100%;width:100%"></div></foreignObject><path data-figma-bg-blur-radius="24" d="M42.8389 67.1266C29.4605 67.1264 18.6162 56.2789 18.6162 42.9029C18.6164 29.5247 29.4607 18.6805 42.8389 18.6803C56.2172 18.6803 67.0623 29.5246 67.0625 42.903C67.0625 56.2791 56.2174 67.1266 42.8389 67.1266Z" fill="#FFCBB9" fill-opacity="0.35" stroke="url(#paint1_linear_552_2391)" stroke-linecap="round" stroke-linejoin="round"/>
<foreignObject x="28.0254" y="0.55481" width="58.9297" height="58.8658"><div xmlns="http://www.w3.org/1999/xhtml" style="backdrop-filter:blur(7.5px);clip-path:url(#bgblur_1_552_2391_clip_path);height:100%;width:100%"></div></foreignObject><g filter="url(#filter2_d_552_2391)" data-figma-bg-blur-radius="15">
<path d="M46.6507 15.5827C45.9937 15.486 45.3259 15.6429 44.7945 16.0189C44.2631 16.3949 43.9118 16.9591 43.818 17.5871L43.7799 17.957L43.0408 40.5531C42.9609 41.2968 43.2126 42.0412 43.7342 42.6033C44.2558 43.1655 44.9989 43.4933 45.7809 43.5063L69.3752 44.4185C70.0323 44.4452 70.6711 44.2203 71.1503 43.7937C71.6294 43.367 71.9094 42.7737 71.9283 42.1449C71.9498 42.0676 71.9581 41.9872 71.9528 41.9071C71.2005 28.5 60.5594 17.429 46.6507 15.5827Z" fill="url(#paint2_linear_552_2391)"/>
</g>
<foreignObject x="23.2871" y="24.5135" width="38.1328" height="38.1337"><div xmlns="http://www.w3.org/1999/xhtml" style="backdrop-filter:blur(7.5px);clip-path:url(#bgblur_2_552_2391_clip_path);height:100%;width:100%"></div></foreignObject><g filter="url(#filter3_d_552_2391)" data-figma-bg-blur-radius="15">
<ellipse cx="42.354" cy="43.5804" rx="4.06684" ry="4.06684" fill="url(#paint3_linear_552_2391)"/>
<path d="M42.3535 39.7137C44.489 39.7137 46.2205 41.4446 46.2207 43.58C46.2207 45.7156 44.4891 47.4471 42.3535 47.4471C40.2181 47.4469 38.4873 45.7154 38.4873 43.58C38.4875 41.4447 40.2183 39.714 42.3535 39.7137Z" stroke="url(#paint4_linear_552_2391)" stroke-width="0.4"/>
</g>
<defs>
<filter id="filter0_f_552_2391" x="0" y="0" width="63.5625" height="63.563" filterUnits="userSpaceOnUse" color-interpolation-filters="sRGB">
<feFlood flood-opacity="0" result="BackgroundImageFix"/>
<feBlend mode="normal" in="SourceGraphic" in2="BackgroundImageFix" result="shape"/>
<feGaussianBlur stdDeviation="9.5" result="effect1_foregroundBlur_552_2391"/>
</filter>
<clipPath id="bgblur_0_552_2391_clip_path" transform="translate(5.88477 5.81995)"><path d="M42.8389 67.1266C29.4605 67.1264 18.6162 56.2789 18.6162 42.9029C18.6164 29.5247 29.4607 18.6805 42.8389 18.6803C56.2172 18.6803 67.0623 29.5246 67.0625 42.903C67.0625 56.2791 56.2174 67.1266 42.8389 67.1266Z"/>
</clipPath><filter id="filter2_d_552_2391" x="28.0254" y="0.55481" width="58.9297" height="58.8658" filterUnits="userSpaceOnUse" color-interpolation-filters="sRGB">
<feFlood flood-opacity="0" result="BackgroundImageFix"/>
<feColorMatrix in="SourceAlpha" type="matrix" values="0 0 0 0 0 0 0 0 0 0 0 0 0 0 0 0 0 0 127 0" result="hardAlpha"/>
<feOffset dx="-3" dy="5"/>
<feGaussianBlur stdDeviation="5"/>
<feColorMatrix type="matrix" values="0 0 0 0 1 0 0 0 0 0.52549 0 0 0 0 0.137255 0 0 0 0.3 0"/>
<feBlend mode="normal" in2="BackgroundImageFix" result="effect1_dropShadow_552_2391"/>
<feBlend mode="normal" in="SourceGraphic" in2="effect1_dropShadow_552_2391" result="shape"/>
</filter>
<clipPath id="bgblur_1_552_2391_clip_path" transform="translate(-28.0254 -0.55481)"><path d="M46.6507 15.5827C45.9937 15.486 45.3259 15.6429 44.7945 16.0189C44.2631 16.3949 43.9118 16.9591 43.818 17.5871L43.7799 17.957L43.0408 40.5531C42.9609 41.2968 43.2126 42.0412 43.7342 42.6033C44.2558 43.1655 44.9989 43.4933 45.7809 43.5063L69.3752 44.4185C70.0323 44.4452 70.6711 44.2203 71.1503 43.7937C71.6294 43.367 71.9094 42.7737 71.9283 42.1449C71.9498 42.0676 71.9581 41.9872 71.9528 41.9071C71.2005 28.5 60.5594 17.429 46.6507 15.5827Z"/>
</clipPath><filter id="filter3_d_552_2391" x="23.2871" y="24.5135" width="38.1328" height="38.1337" filterUnits="userSpaceOnUse" color-interpolation-filters="sRGB">
<feFlood flood-opacity="0" result="BackgroundImageFix"/>
<feColorMatrix in="SourceAlpha" type="matrix" values="0 0 0 0 0 0 0 0 0 0 0 0 0 0 0 0 0 0 127 0" result="hardAlpha"/>
<feOffset dx="5" dy="5"/>
<feGaussianBlur stdDeviation="5"/>
<feColorMatrix type="matrix" values="0 0 0 0 1 0 0 0 0 0.52549 0 0 0 0 0.137255 0 0 0 0.5 0"/>
<feBlend mode="normal" in2="BackgroundImageFix" result="effect1_dropShadow_552_2391"/>
<feBlend mode="normal" in="SourceGraphic" in2="effect1_dropShadow_552_2391" result="shape"/>
</filter>
<clipPath id="bgblur_2_552_2391_clip_path" transform="translate(-23.2871 -24.5135)"><ellipse cx="42.354" cy="43.5804" rx="4.06684" ry="4.06684"/>
</clipPath><linearGradient id="paint0_linear_552_2391" x1="34.1237" y1="11.6266" x2="34.1237" y2="59.0731" gradientUnits="userSpaceOnUse">
<stop stop-color="#FFB37F"/>
<stop offset="1" stop-color="#FF7B0D"/>
</linearGradient>
<linearGradient id="paint1_linear_552_2391" x1="66.7009" y1="66.9492" x2="16.4725" y2="24.4081" gradientUnits="userSpaceOnUse">
<stop stop-color="white" stop-opacity="0.4"/>
<stop offset="1" stop-color="white" stop-opacity="0"/>
</linearGradient>
<linearGradient id="paint2_linear_552_2391" x1="71.7169" y1="23.2275" x2="20.6415" y2="15.9206" gradientUnits="userSpaceOnUse">
<stop stop-color="white" stop-opacity="0.2"/>
<stop offset="1" stop-color="white"/>
</linearGradient>
<linearGradient id="paint3_linear_552_2391" x1="45.8441" y1="40.9823" x2="32.0884" y2="40.488" gradientUnits="userSpaceOnUse">
<stop stop-color="white"/>
<stop offset="1" stop-color="white" stop-opacity="0.2"/>
</linearGradient>
<linearGradient id="paint4_linear_552_2391" x1="39.5819" y1="40.4611" x2="44.7703" y2="46.8871" gradientUnits="userSpaceOnUse">
<stop stop-color="white" stop-opacity="0.25"/>
<stop offset="1" stop-color="white" stop-opacity="0"/>
</linearGradient>
</defs>
</svg>
