<svg width="61" height="64" viewBox="0 0 61 64" fill="none" xmlns="http://www.w3.org/2000/svg">
<foreignObject x="-10.3887" y="-3.30536" width="60.2471" height="67.9377"><div xmlns="http://www.w3.org/1999/xhtml" style="backdrop-filter:blur(6.5px);clip-path:url(#bgblur_0_552_2388_clip_path);height:100%;width:100%"></div></foreignObject><path data-figma-bg-blur-radius="13" fill-rule="evenodd" clip-rule="evenodd" d="M8.40415 20.7907C8.40415 26.9504 13.4447 31.8867 19.7346 31.8867C26.0222 31.8867 31.0651 26.9504 31.0651 20.7907C31.0651 14.6309 26.0222 9.69464 19.7346 9.69464C13.4447 9.69464 8.40415 14.6309 8.40415 20.7907ZM36.8584 44.4501C36.8584 38.748 28.9704 37.3214 19.7351 37.3214C10.4496 37.3214 2.61171 38.7972 2.61171 44.5037C2.61171 50.2057 10.4997 51.6324 19.7351 51.6324C29.0206 51.6324 36.8584 50.1566 36.8584 44.4501Z" fill="url(#paint0_linear_552_2388)"/>
<g filter="url(#filter1_f_552_2388)">
<path d="M23.4544 40.9785C29.0931 40.9785 33.9092 41.926 33.9092 45.7129C33.9092 49.5028 29.1237 50.4829 23.4544 50.4829C17.8157 50.4829 12.9996 49.5354 12.9996 45.7485C12.9996 41.9586 17.7851 40.9785 23.4544 40.9785Z" fill="#EF5641" fill-opacity="0.5"/>
</g>
<g filter="url(#filter2_f_552_2388)">
<path d="M22.5035 26.4052C19.3378 26.4052 16.8008 23.8683 16.8008 20.7026C16.8008 17.5369 19.3378 15 22.5035 15C25.668 15 28.2061 17.5369 28.2061 20.7026C28.2061 23.8683 25.668 26.4052 22.5035 26.4052Z" fill="#EF5641" fill-opacity="0.5"/>
</g>
<foreignObject x="-1.87695" y="-10.513" width="76.9121" height="87"><div xmlns="http://www.w3.org/1999/xhtml" style="backdrop-filter:blur(7.5px);clip-path:url(#bgblur_1_552_2388_clip_path);height:100%;width:100%"></div></foreignObject><g data-figma-bg-blur-radius="15">
<mask id="path-4-outside-1_552_2388" maskUnits="userSpaceOnUse" x="13.0352" y="4.487" width="47" height="57" fill="black">
<rect fill="white" x="13.0352" y="4.487" width="47" height="57"/>
<path fill-rule="evenodd" clip-rule="evenodd" d="M21.7198 20.0388C21.7198 28.117 28.3303 34.5906 36.5791 34.5906C44.8249 34.5906 51.4383 28.117 51.4383 20.0388C51.4383 11.9606 44.8249 5.487 36.5791 5.487C28.3303 5.487 21.7198 11.9606 21.7198 20.0388ZM59.0352 51.0679C59.0352 43.5899 48.6905 41.719 36.5789 41.719C24.4015 41.719 14.1226 43.6543 14.1226 51.1381C14.1226 58.6161 24.4672 60.487 36.5789 60.487C48.7563 60.487 59.0352 58.5516 59.0352 51.0679Z"/>
</mask>
<path fill-rule="evenodd" clip-rule="evenodd" d="M21.7198 20.0388C21.7198 28.117 28.3303 34.5906 36.5791 34.5906C44.8249 34.5906 51.4383 28.117 51.4383 20.0388C51.4383 11.9606 44.8249 5.487 36.5791 5.487C28.3303 5.487 21.7198 11.9606 21.7198 20.0388ZM59.0352 51.0679C59.0352 43.5899 48.6905 41.719 36.5789 41.719C24.4015 41.719 14.1226 43.6543 14.1226 51.1381C14.1226 58.6161 24.4672 60.487 36.5789 60.487C48.7563 60.487 59.0352 58.5516 59.0352 51.0679Z" fill="#FFAC95" fill-opacity="0.4"/>
<path d="M36.5791 35.5906C27.7978 35.5906 20.7198 28.6889 20.7198 20.0388H22.7198C22.7198 27.5451 28.8627 33.5906 36.5791 33.5906V35.5906ZM52.4383 20.0388C52.4383 28.689 45.3573 35.5906 36.5791 35.5906V33.5906C44.2926 33.5906 50.4383 27.5449 50.4383 20.0388H52.4383ZM36.5791 4.487C45.3573 4.487 52.4383 11.3886 52.4383 20.0388H50.4383C50.4383 12.5327 44.2926 6.487 36.5791 6.487V4.487ZM20.7198 20.0388C20.7198 11.3888 27.7978 4.487 36.5791 4.487V6.487C28.8627 6.487 22.7198 12.5325 22.7198 20.0388H20.7198ZM36.5789 40.719C42.6566 40.719 48.4088 41.1846 52.6725 42.643C54.8101 43.3742 56.6464 44.3788 57.9565 45.7656C59.2891 47.1764 60.0352 48.9404 60.0352 51.0679H58.0352C58.0352 49.4563 57.4881 48.1823 56.5026 47.139C55.4946 46.0719 53.9877 45.2067 52.0252 44.5354C48.0887 43.1889 42.6128 42.719 36.5789 42.719V40.719ZM13.1226 51.1381C13.1226 49.0116 13.8628 47.2438 15.1886 45.8261C16.4925 44.4318 18.3221 43.4177 20.4565 42.6774C24.7133 41.2008 30.4667 40.719 36.5789 40.719V42.719C30.5136 42.719 25.0389 43.2048 21.1119 44.5669C19.1544 45.2459 17.6532 46.1188 16.6493 47.1922C15.6673 48.2423 15.1226 49.5228 15.1226 51.1381H13.1226ZM36.5789 61.487C30.5011 61.487 24.749 61.0214 20.4852 59.563C18.3476 58.8318 16.5113 57.8272 15.2012 56.4403C13.8686 55.0296 13.1226 53.2656 13.1226 51.1381H15.1226C15.1226 52.7497 15.6697 54.0237 16.6551 55.0669C17.6632 56.134 19.17 56.9993 21.1325 57.6706C25.069 59.0171 30.545 59.487 36.5789 59.487V61.487ZM60.0352 51.0679C60.0352 53.1944 59.295 54.9622 57.9692 56.3799C56.6652 57.7741 54.8356 58.7883 52.7012 59.5286C48.4444 61.0051 42.691 61.487 36.5789 61.487V59.487C42.6441 59.487 48.1189 59.0012 52.0458 57.6391C54.0034 56.9601 55.5045 56.0872 56.5084 55.0138C57.4905 53.9637 58.0352 52.6832 58.0352 51.0679H60.0352Z" fill="url(#paint1_linear_552_2388)" mask="url(#path-4-outside-1_552_2388)"/>
</g>
<defs>
<clipPath id="bgblur_0_552_2388_clip_path" transform="translate(10.3887 3.30536)"><path fill-rule="evenodd" clip-rule="evenodd" d="M8.40415 20.7907C8.40415 26.9504 13.4447 31.8867 19.7346 31.8867C26.0222 31.8867 31.0651 26.9504 31.0651 20.7907C31.0651 14.6309 26.0222 9.69464 19.7346 9.69464C13.4447 9.69464 8.40415 14.6309 8.40415 20.7907ZM36.8584 44.4501C36.8584 38.748 28.9704 37.3214 19.7351 37.3214C10.4496 37.3214 2.61171 38.7972 2.61171 44.5037C2.61171 50.2057 10.4997 51.6324 19.7351 51.6324C29.0206 51.6324 36.8584 50.1566 36.8584 44.4501Z"/>
</clipPath><filter id="filter1_f_552_2388" x="0" y="27.9785" width="46.9092" height="35.5043" filterUnits="userSpaceOnUse" color-interpolation-filters="sRGB">
<feFlood flood-opacity="0" result="BackgroundImageFix"/>
<feBlend mode="normal" in="SourceGraphic" in2="BackgroundImageFix" result="shape"/>
<feGaussianBlur stdDeviation="6.5" result="effect1_foregroundBlur_552_2388"/>
</filter>
<filter id="filter2_f_552_2388" x="1.80078" y="0" width="41.4053" height="41.4052" filterUnits="userSpaceOnUse" color-interpolation-filters="sRGB">
<feFlood flood-opacity="0" result="BackgroundImageFix"/>
<feBlend mode="normal" in="SourceGraphic" in2="BackgroundImageFix" result="shape"/>
<feGaussianBlur stdDeviation="7.5" result="effect1_foregroundBlur_552_2388"/>
</filter>
<clipPath id="bgblur_1_552_2388_clip_path" transform="translate(1.87695 10.513)"><path fill-rule="evenodd" clip-rule="evenodd" d="M21.7198 20.0388C21.7198 28.117 28.3303 34.5906 36.5791 34.5906C44.8249 34.5906 51.4383 28.117 51.4383 20.0388C51.4383 11.9606 44.8249 5.487 36.5791 5.487C28.3303 5.487 21.7198 11.9606 21.7198 20.0388ZM59.0352 51.0679C59.0352 43.5899 48.6905 41.719 36.5789 41.719C24.4015 41.719 14.1226 43.6543 14.1226 51.1381C14.1226 58.6161 24.4672 60.487 36.5789 60.487C48.7563 60.487 59.0352 58.5516 59.0352 51.0679Z"/>
</clipPath><linearGradient id="paint0_linear_552_2388" x1="17.2138" y1="33.4718" x2="49.3534" y2="46.2329" gradientUnits="userSpaceOnUse">
<stop stop-color="#FFA78F"/>
<stop offset="1" stop-color="#F23E2C"/>
</linearGradient>
<linearGradient id="paint1_linear_552_2388" x1="51.8858" y1="11.8946" x2="15.9981" y2="48.1903" gradientUnits="userSpaceOnUse">
<stop stop-color="white" stop-opacity="0.25"/>
<stop offset="1" stop-color="white" stop-opacity="0"/>
</linearGradient>
</defs>
</svg>
